<?xml version="1.0" standalone="no"?>
<!DOCTYPE svg PUBLIC "-//W3C//DTD SVG 20010904//EN"
 "http://www.w3.org/TR/2001/REC-SVG-20010904/DTD/svg10.dtd">
<svg version="1.0" xmlns="http://www.w3.org/2000/svg"
 width="2000.000000pt" height="1281.000000pt" viewBox="0 0 2000.000000 1281.000000"
 preserveAspectRatio="xMidYMid meet">
<metadata>
Created by potrace 1.16, written by Peter Selinger 2001-2019
</metadata>
<g transform="translate(0.000000,1281.000000) scale(0.100000,-0.100000)"
fill="#000000" stroke="none">
<path d="M8240 12635 c-8 -2 -51 -9 -95 -15 -293 -42 -589 -140 -885 -292 -74
-38 -136 -74 -138 -79 -2 -5 -8 -9 -13 -9 -9 0 -167 -102 -204 -131 -11 -9
-65 -53 -120 -97 -103 -83 -232 -205 -320 -303 -45 -51 -72 -82 -147 -174 -67
-81 -245 -349 -279 -420 -13 -27 -27 -52 -30 -55 -4 -3 -26 -43 -48 -90 -23
-47 -46 -92 -50 -101 -5 -8 -21 -47 -36 -85 -51 -134 -57 -149 -67 -174 -52
-131 -97 -294 -142 -510 -127 -620 -65 -1412 154 -1970 12 -30 25 -66 30 -80
4 -14 15 -38 24 -55 9 -16 16 -33 16 -37 0 -22 84 -182 107 -206 16 -15 53
-36 83 -46 30 -10 64 -21 75 -26 11 -4 40 -15 65 -25 25 -9 56 -22 70 -27 27
-11 70 -25 195 -64 71 -22 126 -35 270 -64 22 -4 72 -15 110 -24 250 -56 278
-62 480 -95 171 -28 314 -48 435 -62 131 -14 146 -21 102 -46 -17 -10 -32 -21
-32 -25 0 -5 -5 -8 -11 -8 -6 0 -32 -14 -58 -32 -25 -18 -122 -83 -216 -146
-93 -63 -172 -117 -175 -121 -3 -3 -21 -15 -40 -25 -19 -10 -67 -43 -107 -72
-40 -30 -75 -54 -78 -54 -3 0 -54 -33 -113 -73 -59 -40 -156 -107 -217 -147
-60 -41 -111 -78 -113 -82 -2 -5 -10 -8 -18 -8 -8 0 -14 -4 -14 -10 0 -5 -4
-10 -10 -10 -5 0 -40 -21 -77 -47 -189 -131 -313 -210 -318 -203 -3 5 -40 16
-83 26 -108 24 -198 11 -307 -47 -44 -23 -87 -48 -96 -55 -8 -8 -19 -14 -23
-14 -8 0 -142 -87 -162 -105 -6 -5 -33 -28 -59 -50 -74 -62 -105 -117 -105
-187 0 -33 7 -72 15 -88 l15 -28 -118 -79 c-64 -44 -160 -108 -212 -143 -52
-36 -96 -68 -98 -72 -2 -5 -10 -8 -17 -8 -7 0 -15 -4 -17 -8 -1 -4 -40 -32
-85 -61 -46 -30 -83 -58 -83 -62 0 -5 -6 -9 -14 -9 -8 0 -16 -3 -18 -7 -1 -5
-43 -35 -93 -69 -202 -136 -301 -206 -322 -230 -18 -20 -23 -37 -23 -81 0 -54
2 -59 44 -97 52 -49 130 -80 172 -70 25 6 138 76 154 95 3 3 10 8 15 10 6 2
70 45 143 94 73 50 140 95 149 100 32 20 169 112 253 170 256 178 405 272 416
261 6 -6 42 -35 80 -65 64 -50 135 -137 165 -203 17 -39 42 -43 99 -14 l50 25
73 -38 c148 -80 195 -101 316 -141 159 -52 285 -72 432 -68 l114 3 1 -265 c1
-216 5 -287 22 -385 22 -130 51 -245 83 -334 12 -31 24 -70 28 -86 4 -17 13
-40 19 -52 7 -12 12 -29 12 -38 0 -27 129 -278 158 -307 7 -7 12 -17 12 -23 0
-7 32 -61 72 -121 39 -60 87 -134 107 -164 19 -30 38 -57 41 -60 3 -3 13 -16
22 -29 40 -58 194 -221 233 -247 14 -9 25 -21 25 -28 0 -6 -22 -56 -49 -111
-28 -55 -64 -131 -82 -170 -17 -38 -40 -88 -50 -111 -10 -22 -19 -43 -19 -47
0 -4 -15 -30 -34 -59 -32 -51 -136 -259 -136 -275 -1 -4 -32 -71 -69 -147
l-69 -140 -66 67 c-36 37 -73 67 -81 67 -33 0 -54 -21 -70 -72 -10 -29 -37
-93 -60 -143 -24 -49 -57 -120 -74 -158 -17 -37 -34 -67 -38 -67 -4 0 -41 10
-82 22 -65 19 -100 23 -241 23 l-165 0 -70 -34 c-157 -76 -156 -108 11 -337
29 -38 76 -96 105 -128 55 -61 209 -186 228 -186 6 0 11 -4 11 -10 0 -5 5 -10
12 -10 6 0 19 -6 27 -14 19 -16 250 -134 338 -172 89 -38 109 -32 250 72 65
48 129 97 143 110 233 206 397 371 513 511 69 85 77 104 52 137 -8 11 -15 23
-15 28 0 4 123 131 273 281 272 273 407 416 460 488 16 22 33 39 38 39 5 0 43
-16 86 -36 80 -38 279 -112 323 -122 14 -2 30 -8 35 -13 6 -4 29 -12 50 -18
22 -5 92 -23 155 -39 63 -16 169 -39 235 -52 238 -44 225 -40 212 -67 -8 -19
-7 -29 9 -50 27 -35 44 -39 220 -47 82 -4 165 -9 184 -12 l35 -5 1 -147 c1
-214 45 -372 116 -408 44 -23 69 -16 137 41 54 45 241 271 241 291 0 4 6 15
14 23 7 9 36 59 63 111 73 139 114 266 133 415 17 130 7 154 -98 226 -45 30
-94 62 -109 69 -16 8 -35 20 -43 26 -8 7 -53 32 -100 57 -47 24 -101 54 -120
66 -19 11 -42 24 -50 27 -8 4 -22 12 -30 19 -8 7 -53 32 -100 56 -47 24 -91
49 -98 56 -35 34 -112 -1 -112 -51 0 -24 -3 -26 -22 -20 -27 8 -122 65 -126
76 -2 4 -8 8 -12 8 -23 0 -317 216 -470 346 -141 119 -135 93 -58 247 98 195
147 324 192 502 48 191 50 207 49 400 0 214 -16 356 -73 655 -5 25 -14 74 -20
110 -6 36 -17 90 -25 120 -7 30 -21 91 -30 135 -10 44 -25 116 -35 160 -46
205 -72 422 -68 571 l3 111 85 -41 c47 -23 114 -53 150 -66 36 -12 69 -27 75
-32 5 -4 15 -8 23 -8 33 0 306 -131 340 -163 28 -26 102 -131 118 -168 13 -28
81 -233 107 -319 9 -30 19 -88 23 -128 l6 -74 -43 7 c-72 10 -74 6 -74 -162 0
-97 -5 -168 -15 -205 -18 -73 -25 -75 -200 -62 -120 9 -179 -25 -231 -132 -28
-59 -22 -110 20 -163 28 -35 31 -46 31 -105 0 -108 64 -206 135 -206 11 0 32
-11 47 -25 33 -30 69 -45 108 -45 16 0 44 -8 62 -18 51 -29 76 -32 121 -16 35
13 49 13 80 3 29 -10 49 -10 90 0 52 12 151 71 161 96 2 7 18 16 35 20 45 10
149 125 192 215 56 114 116 315 155 510 9 47 25 112 35 144 10 33 19 75 19 93
0 40 -35 76 -67 70 -23 -4 -23 -4 -23 127 0 191 -20 316 -85 546 -8 30 -22 82
-31 115 -18 67 -71 192 -91 216 -7 8 -13 19 -13 23 0 10 -82 130 -92 134 -4 2
-8 7 -8 12 0 18 -129 155 -195 205 -21 17 -71 58 -111 93 -40 34 -75 62 -79
62 -3 0 -18 11 -33 25 -15 14 -30 25 -34 25 -4 0 -26 13 -50 29 -73 48 -329
166 -509 234 -36 14 -104 43 -152 65 -47 23 -121 53 -164 68 -43 14 -92 33
-110 40 -17 8 -38 14 -46 14 -9 0 -18 4 -21 9 -3 5 -18 12 -33 16 -16 3 -41
12 -58 20 -97 42 -158 65 -170 65 -24 0 -109 31 -123 45 -14 13 57 23 308 45
434 38 729 79 945 131 73 18 110 28 275 75 30 9 73 20 94 25 36 9 95 31 174
65 18 8 37 14 43 14 6 0 25 6 42 14 18 7 62 26 99 41 95 39 95 40 197 275 96
222 155 384 195 540 10 36 23 88 31 115 30 109 53 269 76 521 l13 140 60 37
c34 21 93 60 131 87 122 86 138 92 219 85 147 -13 216 -33 366 -107 122 -60
246 -138 345 -219 341 -279 425 -383 604 -744 61 -122 111 -226 111 -229 0 -4
12 -33 26 -64 28 -61 33 -75 57 -137 8 -22 26 -67 40 -100 14 -33 32 -80 40
-105 16 -47 39 -102 80 -191 14 -30 44 -101 67 -159 174 -433 384 -788 610
-1030 8 -8 42 -49 75 -90 68 -86 300 -321 360 -365 22 -17 45 -35 50 -41 17
-20 118 -91 160 -114 22 -12 54 -30 70 -40 88 -55 369 -194 450 -223 39 -13
129 -39 200 -56 72 -17 153 -38 180 -46 134 -39 230 -57 268 -51 38 6 135 54
168 82 8 8 19 14 24 14 19 0 309 199 340 234 6 6 37 36 70 66 317 288 695 664
800 795 22 27 48 59 58 70 11 11 71 88 135 170 64 83 121 155 127 161 5 6 21
26 35 44 14 18 56 71 94 119 37 47 89 115 114 151 25 36 67 93 94 126 26 34
48 65 48 68 0 3 17 30 37 59 20 28 44 63 54 77 248 356 396 656 416 843 6 56
5 59 -27 93 l-34 34 -125 0 c-182 0 -407 34 -540 81 -51 19 -198 88 -231 109
-8 5 -51 31 -95 57 -44 26 -84 51 -90 55 -88 71 -150 124 -175 149 -85 86
-182 198 -238 274 -7 9 -47 70 -208 315 -38 58 -99 153 -134 213 -36 59 -73
120 -82 135 -10 15 -21 34 -25 42 -4 8 -22 42 -41 75 -19 33 -50 89 -69 125
-20 36 -42 72 -49 81 -8 8 -14 19 -14 23 0 7 -60 109 -102 174 -10 15 -21 34
-24 42 -4 8 -22 36 -41 63 -18 26 -33 50 -33 53 0 9 -111 149 -121 152 -5 2
-9 8 -9 14 0 12 -68 94 -150 182 -46 49 -115 114 -281 261 -47 43 -181 135
-195 135 -8 0 -14 3 -14 8 0 19 -226 119 -392 173 -76 24 -138 47 -138 51 0 4
32 29 71 54 95 63 105 79 90 151 -19 95 -107 183 -182 183 -39 0 -53 -8 -264
-155 -38 -26 -133 -91 -210 -143 -191 -130 -200 -136 -203 -144 -2 -5 -8 -8
-14 -8 -5 0 -47 -26 -91 -57 -45 -31 -111 -76 -147 -99 -36 -24 -70 -47 -75
-52 -6 -5 -15 -11 -20 -13 -6 -2 -91 -58 -190 -123 -99 -65 -265 -175 -370
-244 -104 -69 -192 -128 -195 -132 -3 -4 -10 -9 -15 -11 -6 -2 -70 -44 -143
-94 -72 -49 -141 -94 -152 -100 -11 -5 -20 -13 -20 -17 0 -5 -4 -8 -10 -8 -9
0 -45 -24 -165 -106 -47 -33 -623 -417 -650 -434 -52 -32 -140 -95 -143 -102
-2 -5 -8 -8 -13 -8 -9 0 -76 -45 -285 -192 l-121 -85 -12 116 c-35 334 -146
768 -261 1016 -10 22 -30 67 -45 100 -45 103 -137 278 -159 305 -7 8 -15 22
-19 31 -3 8 -22 42 -44 74 -21 32 -42 65 -48 73 -30 47 -173 231 -219 282 -83
91 -292 297 -336 330 -25 19 -47 37 -50 40 -14 17 -209 160 -218 160 -6 0 -12
4 -14 8 -5 13 -197 126 -278 164 -181 86 -217 101 -343 142 -177 58 -288 87
-447 117 -59 11 -641 23 -680 14z m519 -170 c8 -8 -4 -29 -40 -70 -44 -53
-249 -353 -334 -491 l-30 -49 -155 -6 c-148 -6 -324 -24 -342 -35 -18 -11 -19
27 -3 83 43 149 204 500 249 542 15 14 45 23 101 30 107 13 541 9 554 -4z
m347 -60 c72 -18 143 -41 158 -50 15 -10 43 -19 63 -21 20 -2 59 -14 87 -28
28 -13 62 -27 76 -31 48 -14 181 -86 187 -100 3 -8 17 -15 32 -15 27 0 121
-53 121 -69 0 -5 12 -12 26 -15 30 -8 132 -75 154 -101 7 -9 30 -25 49 -35 40
-21 91 -66 91 -80 0 -6 6 -10 13 -10 18 0 85 -57 92 -80 3 -10 14 -21 23 -24
17 -6 26 -14 131 -126 34 -36 77 -81 95 -100 55 -57 136 -167 136 -183 0 -8
10 -21 23 -30 12 -8 38 -41 57 -73 19 -33 37 -61 41 -64 16 -13 59 -92 59
-109 0 -10 7 -21 15 -24 16 -7 55 -78 55 -102 0 -9 6 -18 13 -21 8 -3 27 -33
42 -67 16 -34 43 -93 61 -132 37 -79 51 -118 99 -260 61 -184 77 -240 86 -295
4 -30 17 -109 28 -175 27 -158 26 -165 -12 -270 -31 -81 -36 -90 -62 -93 -23
-3 -27 -1 -20 15 49 122 91 260 82 270 -3 2 -11 -13 -17 -34 -56 -172 -94
-265 -114 -275 -11 -6 -81 -15 -155 -19 -163 -9 -169 -13 -150 -91 13 -54 18
-262 9 -373 l-5 -60 108 -3 c59 -1 138 1 175 7 37 5 71 5 75 1 5 -4 21 -2 35
6 64 33 70 13 21 -72 -22 -38 -52 -89 -66 -113 -14 -24 -20 -41 -14 -37 6 4
38 53 71 109 84 144 81 141 77 77 -3 -48 -12 -67 -66 -150 -52 -78 -71 -98
-109 -117 -49 -24 -187 -53 -251 -53 -52 0 -61 -14 -61 -94 0 -39 -12 -137
-26 -219 -31 -176 -30 -177 61 -177 61 0 214 28 268 49 22 8 29 8 33 -3 8 -22
-52 -188 -124 -338 -51 -109 -69 -138 -85 -138 -11 0 -65 -18 -121 -41 -441
-179 -859 -276 -1366 -319 -74 -6 -205 -19 -290 -28 -120 -12 -257 -16 -605
-16 -448 1 -451 1 -675 32 -784 109 -1383 235 -1661 351 l-76 32 -46 97 c-312
664 -403 1415 -261 2132 128 639 431 1224 859 1654 350 352 748 590 1192 711
130 36 223 53 223 40 0 -4 -46 -100 -103 -213 -57 -114 -120 -256 -141 -315
-36 -100 -37 -110 -23 -125 15 -14 28 -14 119 -4 122 14 307 15 397 2 39 -5
71 -5 82 0 9 5 47 63 84 127 111 194 253 402 323 476 l66 68 51 -6 c27 -4 109
-22 181 -40z m5863 -566 c22 -29 22 -31 4 -45 -10 -7 -29 -16 -43 -20 -24 -5
-60 -18 -127 -46 -18 -7 -33 -18 -33 -25 0 -7 -16 -15 -35 -19 -19 -3 -35 -12
-35 -20 0 -7 -19 -18 -42 -25 -24 -6 -59 -18 -80 -26 -20 -8 -42 -13 -49 -11
-12 4 7 17 113 83 9 6 57 38 107 73 50 34 95 62 100 62 5 0 11 3 13 8 5 12 52
41 69 41 8 1 25 -13 38 -30z m-451 -269 c10 -1 -7 -12 -37 -26 -40 -19 -51
-28 -41 -34 10 -6 7 -10 -13 -15 -15 -4 -27 -13 -27 -21 0 -7 -13 -20 -30 -29
-16 -8 -27 -21 -25 -28 3 -7 -15 -20 -47 -34 -29 -12 -52 -26 -51 -31 1 -6
-12 -15 -30 -22 -36 -14 -79 -32 -119 -51 -16 -7 -28 -20 -28 -31 0 -11 -7
-18 -18 -18 -25 0 -58 -36 -40 -43 9 -4 8 -6 -3 -6 -29 -2 -159 -64 -159 -76
0 -6 -11 -17 -25 -23 -14 -6 -25 -18 -25 -27 0 -8 -8 -15 -18 -15 -10 0 -27
-7 -38 -15 -10 -8 -27 -15 -36 -15 -11 0 -18 -8 -18 -19 0 -13 -16 -25 -55
-41 -31 -12 -59 -28 -63 -34 -4 -6 -24 -19 -44 -28 -21 -10 -38 -24 -38 -32 0
-7 -10 -16 -22 -19 -52 -12 -103 -36 -106 -49 -1 -7 -27 -22 -56 -34 -39 -15
-53 -17 -49 -7 3 7 9 13 14 13 5 0 94 60 199 133 105 72 198 137 208 142 9 6
49 34 89 63 40 28 77 52 82 52 5 0 11 7 15 15 3 8 10 15 16 15 5 0 47 26 92
57 46 31 112 76 148 99 36 24 70 48 77 54 7 5 15 10 18 10 3 0 11 5 18 10 40
34 107 80 116 80 6 0 11 5 11 10 0 6 6 10 13 10 6 1 37 18 67 39 30 22 57 35
58 30 2 -5 11 -9 20 -9z m104 -262 c91 -40 150 -73 196 -109 22 -17 22 -17
-127 -102 -82 -47 -212 -126 -290 -177 l-141 -91 -77 54 c-43 30 -102 67 -131
81 -30 15 -52 30 -49 32 5 6 520 352 524 353 2 1 45 -18 95 -41z m724 -3 c35
-19 91 -55 126 -80 64 -46 299 -263 373 -343 l39 -44 -24 -19 c-22 -17 -257
-175 -286 -192 -6 -3 -45 36 -90 90 -102 125 -343 367 -416 418 -32 22 -57 42
-57 45 0 5 258 158 268 159 2 1 33 -15 67 -34z m-2116 -600 c0 -8 -11 -17 -25
-21 -26 -6 -34 -29 -12 -37 6 -3 2 -6 -10 -6 -12 -1 -25 -5 -28 -11 -3 -5 -14
-10 -24 -10 -27 0 -70 -40 -52 -47 15 -6 -42 -31 -91 -40 -31 -6 -39 -33 -10
-34 9 0 -17 -12 -58 -26 -84 -28 -102 -39 -81 -53 10 -6 2 -12 -30 -21 -53
-15 -72 -28 -65 -46 3 -8 -5 -15 -22 -19 -15 -3 -40 -10 -55 -16 -52 -20 -38
-1 40 53 178 121 233 158 323 220 52 35 97 67 98 72 2 4 10 7 17 7 7 0 15 3
17 8 4 9 50 41 61 41 4 1 7 -6 7 -14z m1065 -27 c20 -17 97 -98 170 -179 106
-117 136 -156 145 -191 10 -38 64 -211 77 -244 4 -10 -64 -61 -71 -53 -1 2
-24 77 -51 167 -26 89 -50 160 -53 158 -2 -3 15 -80 38 -172 23 -91 38 -169
34 -173 -5 -5 -35 -22 -66 -40 l-57 -32 -39 123 c-22 68 -43 139 -47 158 -5
19 -10 30 -12 24 -5 -14 29 -167 56 -254 11 -35 19 -65 18 -66 -33 -26 -167
-101 -171 -96 -2 4 -9 27 -16 52 -19 71 -132 381 -137 376 -5 -5 50 -188 104
-344 19 -57 34 -104 32 -106 -25 -19 -56 -36 -65 -36 -26 0 -66 89 -145 328
-46 140 -85 248 -87 240 -1 -7 25 -105 57 -218 33 -113 59 -206 58 -206 -5 -4
-157 177 -157 187 0 7 -3 9 -6 6 -4 -3 -45 29 -92 73 -46 44 -104 94 -128 112
-24 18 -43 35 -43 38 0 3 68 50 152 105 84 54 219 143 301 197 82 54 153 98
157 98 5 0 25 -14 44 -32z m-966 -269 c145 -76 146 -78 127 -97 -8 -9 -158
-111 -333 -227 l-317 -212 -66 40 c-36 22 -93 52 -128 67 -34 15 -64 29 -66
31 -4 4 652 457 663 459 2 0 56 -28 120 -61z m2287 -52 c110 -152 366 -528
362 -532 -2 -1 -104 -58 -228 -125 -124 -67 -245 -133 -270 -147 l-44 -24 -20
26 c-10 15 -110 141 -222 281 -112 139 -204 257 -204 261 0 5 40 33 88 63 48
30 168 112 267 182 99 70 182 128 185 128 3 0 42 -51 86 -113z m-897 -146 c39
-47 70 -90 68 -95 -2 -6 -22 -21 -45 -34 -32 -18 -43 -20 -46 -10 -3 7 -18 58
-34 113 -17 55 -33 109 -37 120 -7 18 -6 18 8 5 8 -8 47 -53 86 -99z m-2110
57 c-11 -4 -19 -12 -19 -18 0 -6 -10 -14 -22 -19 -105 -40 -125 -54 -96 -63 6
-2 -4 -10 -23 -17 -76 -28 -81 -32 -75 -46 3 -9 -3 -16 -17 -20 -73 -20 -122
-54 -79 -55 25 -1 -27 -29 -54 -30 -11 0 -24 -4 -30 -9 -5 -5 -26 -14 -46 -21
-41 -12 -49 -26 -20 -32 9 -2 -5 -10 -33 -20 -32 -10 -50 -21 -49 -31 1 -9
-20 -23 -52 -37 -30 -12 -54 -28 -54 -36 0 -15 -60 -44 -91 -44 -21 0 -26 -26
-6 -33 6 -2 -1 -8 -18 -12 -49 -13 -87 -35 -82 -49 3 -8 -14 -20 -45 -32 -28
-10 -53 -27 -56 -36 -2 -9 -23 -23 -46 -31 -24 -8 -45 -22 -51 -36 -5 -12 -20
-24 -32 -27 -12 -3 -24 -13 -27 -21 -5 -13 0 -15 30 -10 30 5 34 4 24 -8 -7
-8 -16 -15 -21 -15 -5 0 -28 -14 -52 -31 l-42 -31 -3 59 c-2 35 1 59 8 61 6 2
16 9 23 15 18 17 45 34 95 59 23 12 42 26 42 30 0 4 4 8 9 8 6 0 46 25 90 55
44 30 85 55 90 55 5 0 11 4 13 8 2 4 24 20 51 35 26 15 47 32 47 37 0 6 4 10
9 10 8 0 135 80 158 100 7 5 15 10 18 10 3 0 11 5 18 10 31 26 106 80 112 80
3 0 65 42 138 93 73 51 150 103 172 117 22 13 42 28 43 32 2 4 8 8 14 8 5 0
17 7 26 16 15 15 16 15 23 -2 4 -13 1 -21 -12 -26z m3900 -398 c45 -77 122
-204 171 -282 50 -78 87 -144 83 -148 -20 -18 -223 -150 -231 -150 -8 0 -241
310 -355 472 l-48 68 53 33 c135 86 234 147 239 147 4 0 43 -63 88 -140z
m-3623 -161 c110 -77 436 -351 508 -427 l28 -30 -77 -54 c-43 -29 -132 -93
-197 -141 -66 -49 -121 -87 -123 -85 -2 2 -22 53 -45 113 -60 154 -68 154 -16
-1 43 -128 43 -131 24 -143 -25 -15 -28 -12 -57 64 -35 90 -140 309 -146 303
-5 -5 39 -113 104 -252 22 -49 41 -91 41 -94 0 -16 -94 88 -112 123 -29 57
-129 225 -134 225 -6 0 42 -95 82 -161 19 -31 34 -60 34 -63 0 -4 -18 8 -40
25 -25 20 -56 62 -81 109 -22 41 -49 86 -61 100 -11 14 1 -15 27 -64 46 -87
46 -88 17 -67 -16 11 -49 54 -72 96 -24 41 -45 73 -47 71 -3 -2 10 -30 29 -62
31 -57 32 -58 8 -43 -21 14 -140 208 -140 228 0 4 57 46 128 93 70 48 154 107
187 132 33 24 63 45 66 45 3 1 32 -18 65 -40z m1334 -242 c45 -116 62 -140 29
-43 -10 33 -17 61 -15 63 9 9 296 -439 296 -461 -1 -6 -44 -36 -97 -66 -53
-30 -177 -108 -275 -173 -99 -64 -183 -115 -187 -112 -5 2 -25 33 -46 67 -53
89 -213 320 -284 408 -34 41 -61 77 -61 80 0 7 68 50 79 50 5 0 12 -11 15 -25
13 -50 68 -196 73 -191 3 3 -4 33 -15 68 -12 35 -27 86 -36 115 l-14 51 49 31
c28 17 52 31 54 31 2 0 14 -27 26 -60 26 -71 39 -74 15 -4 -21 62 -20 81 4 94
22 12 28 3 50 -63 18 -56 23 -39 5 19 -8 27 -15 55 -15 61 0 10 48 43 63 43 2
0 17 -34 32 -75 15 -42 29 -74 31 -72 2 2 -7 39 -21 83 -14 43 -25 80 -25 81
0 4 102 64 105 61 1 -2 17 -43 35 -91 43 -114 54 -120 18 -9 -15 47 -28 94
-28 104 0 9 17 29 37 43 30 20 40 22 50 12 6 -6 30 -61 53 -120z m-2938 68 c9
-50 8 -301 -1 -345 -8 -42 -33 -60 -61 -42 -11 7 -20 8 -20 2 0 -13 -31 -29
-71 -35 -19 -3 -57 -9 -84 -14 -28 -5 -88 -11 -134 -13 l-84 -3 -1 220 -1 220
110 7 c61 4 142 13 180 18 39 6 81 13 93 15 13 2 27 6 30 10 16 16 37 -3 44
-40z m4133 -207 c51 -68 335 -489 335 -497 0 -4 -75 -46 -167 -95 -93 -49
-254 -136 -360 -192 -106 -57 -194 -104 -197 -104 -14 0 -336 526 -336 548 0
4 12 14 28 23 15 9 119 69 232 134 113 66 250 145 305 177 55 32 105 58 110
58 6 0 29 -24 50 -52z m1123 -250 c51 -65 263 -275 341 -340 23 -20 40 -41 37
-47 -4 -6 -100 -73 -214 -150 -114 -76 -239 -162 -279 -190 l-72 -51 -76 83
c-75 81 -320 391 -331 420 -4 11 25 32 104 77 60 34 179 106 263 160 85 54
159 98 166 99 6 1 34 -27 61 -61z m755 -257 c40 -32 115 -86 167 -119 151 -98
139 -83 108 -128 -15 -22 -40 -54 -55 -72 l-28 -33 -145 89 c-80 48 -174 108
-208 132 l-62 44 72 73 c40 40 74 73 76 73 2 0 36 -26 75 -59z m-6071 -121
c-6 -54 -55 -257 -69 -283 -7 -15 -11 -32 -8 -38 20 -31 -52 -74 -139 -85 -17
-2 -55 -8 -84 -14 -29 -6 -70 -10 -90 -8 l-37 3 3 45 c2 25 8 63 13 85 4 22 9
88 9 146 0 73 4 110 13 117 6 5 46 13 87 16 41 4 95 9 120 11 25 3 68 11 95
19 70 20 91 17 87 -14z m2773 -300 c73 -134 217 -421 213 -425 -2 -1 -25 -15
-53 -30 -27 -16 -126 -78 -218 -138 -134 -88 -171 -107 -178 -96 -7 11 -9 10
-9 -6 0 -18 -44 -55 -64 -55 -3 0 -7 30 -8 68 l-2 67 -5 -79 c-4 -50 -11 -81
-18 -84 -10 -3 -13 13 -13 60 0 35 -3 108 -7 163 -6 86 -8 94 -15 60 -4 -22
-5 -92 -2 -155 l5 -115 -19 40 c-12 27 -21 75 -26 145 -11 182 -18 240 -28
234 -6 -4 -7 -56 -4 -128 4 -71 3 -113 -2 -101 -5 11 -12 111 -15 222 l-6 202
38 30 c70 55 366 240 372 233 4 -4 33 -54 64 -112z m4353 -2 c99 -9 122 -15
122 -27 0 -9 -13 -47 -29 -86 l-28 -70 -54 3 c-61 4 -158 18 -231 33 l-48 11
27 46 c65 115 64 114 92 108 14 -3 81 -11 149 -18z m-587 -171 c52 -20 111
-38 132 -42 20 -4 37 -10 37 -14 0 -19 -388 -486 -420 -506 -19 -12 -274 71
-415 135 l-69 31 139 137 c89 87 173 181 229 258 l90 121 92 -43 c51 -23 134
-58 185 -77z m-2678 -94 c90 -134 169 -239 306 -404 13 -16 22 -31 20 -33 -12
-11 -293 -187 -474 -298 l-210 -128 -19 23 c-49 59 -351 627 -344 648 3 9 594
347 609 349 3 0 53 -71 112 -157z m-1571 -70 c3 -93 4 -169 3 -170 -1 -2 -85
204 -110 268 -4 10 3 19 19 27 28 13 26 17 46 -78 8 -39 9 -35 5 31 -5 77 -2
89 20 89 9 0 14 -46 17 -167z m2885 34 c79 -63 309 -221 396 -271 l47 -28
-112 -108 c-101 -97 -114 -107 -126 -92 -12 15 -13 14 -7 -9 5 -21 2 -30 -16
-43 -23 -15 -24 -15 -42 16 -10 18 -16 25 -13 15 19 -62 19 -61 -52 -128 -73
-70 -229 -198 -249 -206 -15 -6 -73 28 -250 145 -130 86 -384 285 -383 301 1
3 93 65 206 136 113 72 275 176 362 232 86 57 158 103 159 103 1 0 37 -28 80
-63z m1363 -602 c85 -15 158 -30 162 -34 9 -8 -405 -551 -487 -639 -9 -11 -50
-4 -220 33 -115 25 -211 48 -213 50 -6 5 14 28 234 270 94 105 203 227 241
273 62 76 71 82 98 78 17 -3 100 -17 185 -31z m-8939 -238 c10 -36 56 -97 73
-97 7 0 25 -9 38 -20 14 -10 28 -17 31 -14 8 9 111 -28 133 -48 11 -10 23 -15
27 -12 5 6 121 -36 162 -59 11 -7 27 -12 35 -13 8 -1 33 -9 55 -19 22 -10 44
-17 48 -16 4 0 22 -6 40 -16 18 -9 39 -18 47 -19 8 -2 23 -7 35 -12 11 -5 38
-17 60 -27 22 -10 45 -19 51 -21 24 -4 102 -42 108 -52 4 -6 12 -9 19 -6 17 6
80 -20 96 -40 7 -8 18 -13 26 -10 7 3 28 -3 47 -12 18 -10 38 -19 45 -20 13
-2 192 -90 266 -131 27 -15 62 -39 78 -54 17 -15 32 -28 35 -28 5 0 53 -39
188 -152 173 -146 302 -330 365 -524 95 -292 113 -378 118 -570 4 -150 2 -174
-14 -205 -17 -33 -22 -35 -85 -43 -36 -4 -128 -4 -205 0 l-138 8 -3 30 c-8 82
-39 207 -94 370 -102 307 -144 364 -332 455 -67 32 -188 85 -271 118 -362 145
-509 213 -574 263 -32 26 -52 24 -49 -3 1 -13 -4 -50 -12 -83 -20 -81 -21
-687 -2 -820 77 -532 91 -788 57 -1060 -19 -157 -31 -206 -96 -398 -90 -264
-169 -425 -376 -761 -102 -165 -139 -216 -372 -516 -62 -80 -163 -210 -224
-289 -173 -222 -218 -278 -312 -386 -47 -55 -118 -138 -157 -185 -40 -47 -99
-113 -131 -147 l-60 -62 -41 21 c-23 11 -55 31 -73 44 l-31 24 48 110 c27 60
78 167 113 237 147 294 375 742 404 793 161 290 211 391 322 646 33 78 61 154
61 168 0 28 -29 46 -75 46 -19 0 -32 16 -73 93 -66 122 -145 304 -176 402 -36
115 -112 434 -130 545 -74 463 -54 933 58 1380 68 267 202 582 379 890 54 93
182 295 209 327 6 8 44 11 116 10 l106 -2 7 -28z m-642 14 c10 -6 4 -12 -23
-22 -20 -7 -36 -16 -36 -19 0 -3 -20 -14 -45 -24 -25 -11 -45 -25 -45 -31 0
-13 -68 -45 -95 -45 -8 0 -15 -6 -15 -14 0 -13 -56 -46 -79 -46 -10 0 -15 -14
-12 -33 1 -4 -10 -12 -23 -17 -29 -11 -44 -32 -28 -38 18 -6 15 -22 -4 -22 -9
0 -30 -6 -47 -14 -18 -8 -40 -17 -50 -20 -10 -3 -16 -10 -13 -15 3 -5 -9 -14
-27 -21 -96 -37 -145 -70 -104 -70 21 0 -14 -18 -70 -36 -29 -9 -53 -22 -53
-29 0 -6 -16 -19 -35 -28 -36 -17 -44 -32 -22 -40 6 -3 3 -6 -8 -6 -11 -1 -29
-7 -40 -15 -11 -7 -32 -16 -47 -20 -15 -3 -34 -14 -44 -23 -16 -17 -73 -37
-134 -49 -23 -4 -24 -4 -6 8 11 7 28 21 38 31 10 9 23 17 28 17 6 0 10 5 10
10 0 6 5 10 11 10 6 0 28 13 48 28 20 16 52 37 71 48 19 10 37 22 40 25 3 4
41 31 85 60 44 29 82 56 85 59 3 4 10 9 15 11 28 11 145 92 145 100 0 5 4 9 9
9 8 0 102 58 128 80 7 6 17 10 23 10 5 0 10 5 10 10 0 6 5 10 10 10 6 0 16 5
23 10 7 6 37 28 67 50 30 22 60 44 67 50 7 5 16 10 20 10 4 0 26 14 47 30 40
30 95 40 125 21z m282 -62 c17 -24 20 -36 12 -48 -273 -424 -450 -809 -537
-1164 -107 -437 -130 -856 -71 -1332 15 -119 100 -493 141 -621 32 -99 85
-219 135 -306 22 -36 39 -69 39 -72 0 -9 -34 6 -50 23 -29 30 -129 206 -158
276 -79 193 -164 519 -208 804 -21 137 -29 441 -15 591 24 261 138 725 241
986 86 216 420 894 440 894 5 0 19 -14 31 -31z m-169 -96 c-37 -49 -272 -533
-359 -743 -96 -229 -217 -699 -243 -940 -17 -163 -23 -476 -11 -613 36 -413
165 -845 326 -1091 16 -24 16 -26 1 -32 -10 -4 -44 7 -81 25 -68 34 -80 37
-80 22 0 -10 80 -71 93 -71 5 0 27 -9 50 -20 23 -12 73 -28 110 -37 37 -9 74
-18 82 -21 14 -4 37 -7 105 -14 18 -2 31 -9 33 -19 3 -19 -322 -672 -344 -690
-54 -44 -446 496 -600 827 -69 146 -161 432 -184 569 -43 253 -47 521 -14 835
42 396 193 1020 333 1383 6 15 7 27 2 27 -5 0 -21 -30 -35 -67 -14 -38 -46
-97 -70 -132 -34 -51 -41 -69 -33 -81 7 -13 5 -26 -7 -51 -10 -19 -19 -46 -21
-61 -2 -15 -12 -42 -21 -60 -10 -18 -18 -44 -19 -58 -1 -14 -11 -56 -23 -95
-11 -38 -34 -120 -50 -182 -17 -62 -34 -117 -38 -124 -4 -7 -8 -24 -10 -38 -4
-37 -22 -128 -30 -154 -4 -12 -8 -26 -9 -32 -2 -25 -27 -162 -32 -175 -3 -8
-7 -33 -9 -55 -10 -108 -16 -129 -37 -122 -7 2 -34 -2 -62 -9 -117 -31 -333
-12 -529 47 -85 25 -271 106 -286 124 -8 10 1 21 39 49 61 45 124 114 204 224
l61 84 75 -6 c126 -11 302 -36 365 -52 77 -20 120 -16 124 12 4 29 -18 44 -91
64 -61 16 -62 17 -59 48 5 75 168 516 250 679 76 151 94 175 167 226 39 26 84
55 100 63 17 8 57 34 90 58 33 24 63 42 68 39 4 -2 7 0 7 6 0 9 84 71 98 71 4
1 23 14 42 30 19 17 40 30 46 30 7 0 27 14 45 30 17 17 38 29 45 26 7 -3 15 1
17 9 7 16 97 79 97 68 0 -4 5 0 11 10 5 9 15 17 20 17 6 0 30 16 53 35 24 19
46 35 51 35 4 0 20 11 37 25 16 14 35 25 43 25 7 0 19 7 26 17 8 9 27 24 44
34 40 25 56 8 27 -28z m6455 -41 c44 -61 180 -225 277 -335 32 -36 96 -97 142
-133 46 -37 84 -71 84 -75 0 -4 -12 -15 -27 -24 -16 -10 -128 -89 -250 -177
-123 -87 -227 -158 -232 -158 -5 0 -14 12 -20 28 -9 24 -9 22 -4 -14 4 -32 2
-42 -11 -47 -18 -7 -20 -4 -64 126 -15 43 -28 74 -30 68 -5 -14 34 -145 55
-184 13 -26 12 -29 -9 -47 -13 -11 -28 -19 -34 -20 -19 0 -43 72 -95 275 -26
105 -48 179 -48 165 -1 -42 46 -250 73 -325 14 -38 24 -70 22 -72 -1 -1 -23
19 -48 45 -43 44 -48 55 -77 167 -17 66 -37 156 -45 200 -9 51 -15 67 -15 45
-1 -48 26 -198 49 -273 11 -33 18 -63 16 -64 -11 -11 -58 68 -75 125 -23 74
-67 278 -74 332 -4 34 -4 34 -5 -6 -3 -59 23 -198 52 -284 14 -41 24 -75 23
-77 -2 -1 -52 57 -113 130 -115 138 -224 287 -224 306 0 19 16 12 28 -11 11
-21 12 -21 7 7 -5 27 -1 33 34 52 22 13 42 20 44 15 2 -4 8 -40 11 -81 4 -40
12 -83 17 -95 9 -19 9 -19 5 4 -3 14 -6 63 -7 108 -1 63 2 86 12 93 25 16 29
10 29 -40 0 -67 28 -274 40 -303 8 -18 9 -14 5 22 -13 97 -24 238 -25 291 l0
56 42 19 c23 10 124 65 223 121 99 57 185 103 190 103 6 -1 29 -26 52 -58z
m1579 -35 c68 -41 244 -119 367 -162 42 -15 77 -30 77 -34 0 -10 -429 -436
-434 -431 -2 3 -25 57 -51 120 -58 144 -127 292 -132 286 -5 -5 80 -218 131
-330 36 -79 43 -106 28 -106 -5 0 -42 -34 -83 -75 l-75 -75 -39 13 c-36 12
-43 20 -63 73 -13 32 -64 155 -114 272 -53 124 -87 217 -82 220 6 4 64 50 129
103 242 193 237 190 260 175 11 -7 48 -29 81 -49z m-461 -317 c10 -30 53 -143
96 -250 42 -107 76 -197 73 -199 -5 -6 -337 119 -351 133 -7 6 -31 54 -54 106
l-41 95 39 32 c21 18 41 33 46 33 4 0 12 -12 17 -26 30 -78 73 -175 76 -171 2
2 -12 50 -33 106 -27 75 -33 105 -25 113 10 10 44 -51 83 -151 5 -13 12 -21
15 -19 3 3 -11 45 -30 94 -20 48 -36 91 -36 95 0 12 94 79 101 72 3 -5 15 -33
24 -63z m-8802 -180 c20 0 -15 -19 -55 -30 -22 -6 -38 -17 -38 -25 0 -8 -4
-15 -9 -15 -5 0 -11 -9 -14 -20 -3 -12 -14 -20 -26 -20 -12 0 -21 -6 -21 -15
0 -8 -7 -15 -15 -15 -24 0 -65 -22 -65 -36 0 -7 -25 -20 -55 -29 -40 -13 -55
-23 -55 -36 0 -13 -12 -21 -40 -29 -24 -6 -40 -17 -40 -25 0 -8 -7 -15 -15
-15 -28 0 -65 -24 -65 -42 0 -10 -4 -18 -10 -18 -5 0 -10 -6 -10 -13 0 -26
-33 -44 -72 -40 -41 6 -58 29 -27 38 10 4 19 11 19 16 0 5 7 9 15 9 8 0 15 5
15 10 0 6 5 10 11 10 6 0 28 12 48 28 41 31 69 49 91 59 8 4 17 10 20 14 6 9
350 239 357 239 2 0 12 8 21 17 16 16 17 16 20 0 2 -9 9 -17 15 -17z m-46
-372 c-77 -151 -103 -211 -127 -293 -16 -54 -73 -220 -83 -241 -11 -26 -49
-34 -169 -34 -86 0 -88 1 -88 24 0 24 -34 76 -50 76 -5 0 -25 11 -44 24 l-36
24 26 6 c14 4 41 21 60 38 32 30 49 69 72 168 7 30 24 45 147 127 76 51 140
93 142 93 2 0 9 5 16 10 22 19 212 147 215 145 1 -1 -35 -76 -81 -167z m2333
22 c0 -5 6 -10 13 -10 7 0 22 -8 33 -19 11 -10 30 -21 41 -25 27 -8 63 -107
63 -170 0 -55 -14 -60 -30 -10 -7 19 -14 33 -17 31 -2 -3 5 -27 16 -52 21 -48
29 -108 12 -89 -5 5 -14 27 -21 49 -7 22 -15 35 -17 29 -2 -6 8 -41 22 -77 14
-37 25 -82 25 -100 -1 -28 -5 -22 -39 48 -22 44 -40 77 -40 73 -1 -3 19 -56
44 -118 53 -132 62 -199 15 -110 -38 73 -38 50 0 -36 17 -37 29 -79 28 -93 -3
-23 -7 -19 -27 27 -36 79 -37 55 -2 -29 34 -80 43 -135 15 -89 l-15 25 7 -25
c4 -14 12 -36 19 -50 18 -35 30 -124 16 -115 -6 3 -11 12 -11 20 0 8 -4 17
-10 20 -11 7 0 -26 25 -75 8 -16 15 -42 15 -57 -1 -31 4 -34 -46 32 -8 11 -1
-7 15 -39 18 -34 31 -75 31 -95 l0 -36 -20 25 c-17 21 -16 16 5 -30 14 -30 25
-71 25 -91 0 -19 9 -84 20 -145 17 -89 19 -133 15 -239 -17 -382 -134 -874
-274 -1154 -61 -121 -209 -371 -289 -486 -185 -268 -531 -718 -651 -849 -31
-33 -88 -97 -125 -141 -74 -86 -193 -218 -321 -356 -44 -48 -88 -87 -97 -88
-17 -1 -148 47 -148 55 0 6 148 180 296 351 318 364 776 946 901 1143 188 298
303 523 393 773 114 319 144 491 142 822 -1 216 -13 327 -74 680 -20 114 -22
165 -22 425 0 294 8 455 24 445 4 -3 6 4 3 15 -3 11 0 20 6 20 6 0 11 -4 11
-10z m6891 -108 c30 -11 129 -36 222 -58 92 -21 167 -41 167 -45 0 -8 -231
-223 -307 -286 -34 -28 -117 -88 -184 -133 -115 -77 -124 -81 -163 -75 -77 12
-201 36 -233 46 -31 10 -129 106 -119 117 3 2 20 14 38 27 l32 22 49 -54 c27
-29 63 -63 81 -75 17 -11 -2 12 -41 53 -40 41 -73 79 -72 84 0 6 51 50 112 99
62 48 153 124 202 167 50 43 95 79 101 79 7 0 15 -12 18 -26 4 -15 9 -24 11
-22 3 2 1 18 -4 35 -7 24 -5 35 7 47 20 20 17 20 83 -2z m-10507 -463 c-11 -4
-31 -8 -46 -8 -16 -1 -32 -9 -38 -21 -6 -10 -28 -24 -50 -30 -44 -12 -52 -27
-17 -32 15 -3 6 -8 -30 -18 -29 -7 -53 -19 -53 -25 0 -7 -19 -19 -41 -28 -29
-11 -40 -21 -36 -31 4 -10 -7 -18 -39 -27 -34 -10 -44 -18 -41 -30 5 -17 -29
-39 -58 -39 -26 0 -66 -23 -61 -36 3 -7 -8 -14 -29 -18 -21 -4 -36 -14 -40
-26 -3 -10 -14 -21 -24 -25 -9 -3 -24 -21 -31 -40 -8 -19 -19 -35 -26 -35 -33
0 -174 -53 -174 -66 0 -10 9 -12 33 -8 l32 5 -34 -15 c-18 -9 -41 -16 -50 -16
-23 0 -63 -29 -56 -41 4 -5 -3 -9 -14 -9 -28 0 -90 -32 -91 -47 0 -17 21 -16
45 1 25 16 99 31 91 18 -3 -5 -34 -17 -68 -27 -77 -21 -110 -41 -88 -55 12 -8
9 -10 -10 -10 -26 0 -50 -16 -50 -33 0 -4 10 -6 23 -2 16 4 13 1 -8 -11 -16
-9 -32 -20 -35 -23 -3 -3 -17 -12 -31 -20 -21 -10 -31 -11 -50 -1 -53 27 -79
70 -44 70 8 0 15 5 15 10 0 6 4 10 9 10 6 0 39 20 75 45 37 25 68 45 70 45 2
0 41 25 86 55 45 30 85 55 90 55 4 0 10 6 13 13 3 6 22 21 43 32 35 18 211
132 224 145 7 7 37 26 75 46 17 9 46 30 66 45 20 16 42 29 48 29 6 0 11 4 11
8 0 4 26 23 58 42 67 41 196 132 200 143 2 4 8 7 13 7 5 0 33 15 61 34 49 33
52 34 76 18 23 -15 23 -16 6 -23z m3952 -1094 c9 -14 13 -33 9 -44 -3 -11 -1
-30 5 -41 6 -11 13 -67 15 -123 2 -56 6 -114 10 -129 4 -16 4 -36 0 -45 -4
-10 -7 -42 -5 -70 1 -29 -2 -58 -6 -64 -3 -6 -8 -30 -10 -53 -2 -23 -9 -56
-15 -72 -7 -16 -11 -32 -11 -37 2 -8 -37 -136 -47 -152 -3 -5 -7 -21 -9 -35
-2 -14 -12 -43 -23 -66 -10 -22 -19 -46 -19 -53 0 -7 -6 -25 -14 -39 -7 -15
-46 -92 -85 -172 -323 -653 -507 -898 -1184 -1574 -330 -330 -350 -348 -373
-337 -13 6 -24 14 -24 18 0 5 43 51 96 103 52 52 141 147 197 210 56 63 162
182 236 265 139 157 275 328 400 505 41 58 102 141 136 185 33 44 78 107 100
139 22 32 43 64 48 70 37 54 218 372 257 451 88 181 194 529 234 775 31 189
35 219 37 315 1 44 4 83 6 88 8 14 23 7 39 -18z m-170 -1471 c24 -20 44 -43
44 -51 0 -8 3 -12 8 -9 4 2 41 -27 81 -65 41 -38 78 -69 81 -69 4 0 15 -10 26
-21 51 -57 372 -282 477 -335 33 -16 61 -35 64 -42 11 -28 -19 -159 -53 -229
-36 -77 -142 -241 -169 -263 -13 -11 -28 -11 -88 3 -40 10 -80 17 -89 17 -9 0
-29 5 -45 11 -15 6 -47 12 -71 14 -23 1 -48 7 -55 12 -6 5 -25 10 -41 11 -16
1 -39 9 -52 16 -12 8 -31 12 -42 10 -11 -3 -23 -1 -26 5 -4 6 -22 11 -39 11
-18 0 -45 7 -61 15 -15 8 -40 15 -55 15 -15 0 -38 8 -51 17 -14 10 -39 18 -56
19 -18 0 -44 10 -59 22 -15 12 -31 19 -36 16 -9 -5 -79 16 -134 41 -16 7 -54
21 -83 30 -29 9 -56 24 -59 32 -3 9 10 31 34 56 103 108 233 294 377 540 47
81 86 150 86 153 0 7 32 54 37 54 3 0 25 -16 49 -36z"/>
<path d="M7700 10394 c-442 -39 -850 -95 -1021 -139 -98 -26 -371 -121 -426
-148 -69 -35 -84 -58 -132 -193 -79 -223 -106 -411 -105 -739 0 -209 4 -254
37 -487 20 -141 43 -284 52 -317 27 -107 76 -235 98 -260 44 -49 445 -226 667
-294 131 -41 398 -112 480 -127 652 -124 1162 -155 1720 -106 206 19 488 58
642 90 163 34 416 120 451 154 35 34 58 109 96 322 43 243 49 286 71 505 54
531 49 990 -15 1198 -8 26 -11 47 -8 47 22 0 -35 37 -116 76 -193 93 -343 138
-791 239 -454 103 -556 120 -975 160 -155 14 -633 27 -725 19z m655 -109 c416
-30 623 -59 965 -136 478 -108 756 -186 880 -247 l55 -27 12 -65 c16 -86 16
-203 -2 -580 -26 -553 -48 -793 -115 -1213 -16 -100 -22 -107 -135 -139 -275
-79 -350 -95 -605 -128 -652 -85 -1358 -79 -1965 16 -352 55 -750 169 -1059
302 -124 53 -110 35 -166 228 -45 152 -63 264 -111 689 -24 210 -11 601 26
796 15 74 56 191 78 218 28 34 324 131 539 176 133 28 629 97 813 113 162 14
574 13 790 -3z"/>
<path d="M8025 9864 c-71 -52 -157 -114 -190 -138 -142 -104 -371 -310 -540
-487 -48 -50 -58 -64 -33 -46 20 15 42 27 48 27 20 0 243 182 410 335 52 48
129 115 170 148 128 104 244 210 257 234 6 13 11 23 10 22 -1 0 -60 -43 -132
-95z"/>
<path d="M7491 9839 c-219 -167 -472 -379 -611 -513 -180 -173 -309 -305 -360
-367 l-44 -54 53 50 c28 28 53 48 55 45 6 -8 195 159 336 295 69 67 235 218
370 336 257 226 358 318 350 318 -3 0 -70 -49 -149 -110z"/>
<path d="M8549 9762 c-70 -53 -252 -203 -405 -333 -154 -129 -358 -298 -454
-375 -96 -78 -196 -158 -221 -180 -26 -21 -82 -68 -125 -104 -208 -172 -642
-586 -529 -505 64 46 274 215 280 226 4 5 14 9 23 9 9 0 51 30 92 66 176 155
426 368 585 497 203 167 340 284 495 427 63 58 153 139 200 180 47 41 85 78
85 83 0 5 25 31 55 58 30 26 53 48 50 48 -3 0 -62 -44 -131 -97z"/>
<path d="M9010 9574 c-290 -208 -437 -319 -560 -425 -160 -137 -272 -247 -265
-259 8 -13 218 147 415 315 91 77 202 167 248 200 45 33 81 65 82 72 0 6 37
42 83 79 146 120 146 124 -3 18z"/>
<path d="M9679 9051 c-164 -129 -151 -118 -440 -373 -129 -113 -292 -266 -364
-339 l-130 -132 88 66 c48 37 93 67 100 67 18 0 260 215 472 421 146 141 373
348 414 375 1 2 1 7 0 12 -2 4 -65 -39 -140 -97z"/>
<path d="M9010 9058 c-475 -341 -1020 -773 -1260 -997 l-45 -42 56 40 c31 23
62 41 70 41 31 0 177 112 529 405 342 285 721 593 770 627 14 9 21 17 15 17
-5 -1 -66 -41 -135 -91z"/>
</g>
</svg>
